<svg xmlns="http://www.w3.org/2000/svg" viewBox="0 0 87.21 87.21"><defs><style>.cls-1{fill:#fff;}.cls-2{fill:#ff485e;}.cls-3{fill:#fff9ff;}</style></defs><title>Ресурс 1</title><g id="Слой_2" data-name="Слой 2"><g id="background"><circle class="cls-1" cx="43.6" cy="43.6" r="43.6"/><circle class="cls-2" cx="43.6" cy="43.6" r="35.35"/><path class="cls-3" d="M36,57.28a3.55,3.55,0,1,0,3.55,3.55A3.55,3.55,0,0,0,36,57.28Z"/><path class="cls-3" d="M49.76,57.28a3.55,3.55,0,1,0,3.56,3.55A3.55,3.55,0,0,0,49.76,57.28Z"/><path class="cls-3" d="M62.22,32.57l-34.37,0a.54.54,0,0,0-.48.78L35,48.5a.55.55,0,0,0,.48.3h0l20.79,0h0l.28,0,.29,0h0l.27,0,.12,0,.24-.1.1-.06.11-.08a.52.52,0,0,0,.11-.1l.07-.09,0,0,.15-.24.12-.18v0l7-12.34,0,0C67.34,32.57,65.73,32.5,62.22,32.57Z"/><path class="cls-3" d="M57,51.39l-22.65.08L23.67,30.53a1.61,1.61,0,0,0-.84-.9L18.62,27.7a1.62,1.62,0,0,0-2.15.79l0,.09a1.62,1.62,0,0,0,.79,2.16l3.66,1.68L31.7,53.67a1.66,1.66,0,0,0,.62.85,1.59,1.59,0,0,0,1.32.3L57,54.74a1.63,1.63,0,0,0,1.62-1.63V53A1.62,1.62,0,0,0,57,51.39Z"/></g></g></svg>