<svg xmlns="http://www.w3.org/2000/svg" viewBox="0 0 1600 901"><defs><style>.cls-1{fill:#474747;opacity:0.1;isolation:isolate;}.cls-2{fill:#ff485e;}.cls-3{fill:#c6335c;}.cls-4{fill:#15a38d;}.cls-5{fill:#1baa7c;}</style></defs><title>Ресурс 1</title><g id="Слой_2" data-name="Слой 2"><g id="Слой_1-2" data-name="Слой 1"><g id="Слой_2-2" data-name="Слой 2"><g id="Слой_1-2-2" data-name="Слой 1-2"><g id="Слой_2-2-2" data-name="Слой 2-2"><g id="background"><path class="cls-1" d="M687.43,715.35c-76.82-12.66-142.48,24-208.9,59.54-7.1,3.81-14.5,7.69-22.43,7.87-51.7,1.16,32-70.47,38.77-79.89,12.37-17.3,20.32-39.48,16.95-61.08-5.38-34.45-37.56-57-69.17-64.2s-64.48-3.4-96.49-8.13C252.93,555.76,177,464.78,165.09,363.82,144.34,187.8,288.77,61.55,427.9,11.39c3-1.09,7-4.34,11-6.52,1.54-.43,3-.84,4.65-1.25l-26-1.68C312.69-4.85,119.13,7.75,0,16V900H702.81l.56-.66C751.66,841.73,787.55,731.88,687.43,715.35Z"/></g></g></g></g><g id="Слой_2-3" data-name="Слой 2"><g id="background-2" data-name="background"><path class="cls-2" d="M253.82,569.3s-6.5-23.83,7.79-36.53,23.69-3.42,23.69-3.42-2.43-15.44,3.75-14.45,5.3,13.21,5.3,13.21,5.71-14.64,9.37-10.29-4.78,18.51-4.78,18.51,9.94-2.5,10.06,4.14-12.62,2.76-12.62,2.76,3.75,9.44-4.6,20.8S265.14,584.84,253.82,569.3Z"/><path class="cls-3" d="M236.61,588.19c2.18,10.14,20.6.86,31.26-2.69s12.91-6,10.63-10.88-12.05-2.53-12.05-2.53,4.07-11.09.69-14.43-11.24,5.56-11.24,5.56-4.23-13.07-1.87-15.87S233,571.63,236.61,588.19Z"/><path class="cls-2" d="M225.64,198.67s18.93-15,19.61-20.19S233.58,180,233.58,180s16.66-24.64,10.54-31.42-17.68,12.57-17.68,12.57,1.67-20-5.9-21.6-8.38,22.3-8.38,22.3-3.86-10.47-8.72-6.71-3.54,30.62,6.23,38.2S225.64,198.67,225.64,198.67Z"/><path class="cls-3" d="M202.3,195c4.35,8,15.25,14.6,23.56,8.06s9.6-9.41,6.46-12.78-11,1.77-11,1.77.82-10.89-2.91-12.63-8.32,8.47-8.32,8.47-2.44-14-5.43-13.06S195.17,182,202.3,195Z"/><path class="cls-2" d="M78.43,349.69c10.42,3.75,28.67,12.57,46.64-11.36,9.66-12.86,9-48.36-.84-64.86S105.32,254,98.1,263.89c-7.06,9.66,5.51,38.16,5.51,38.16s-20-28-32.85-20,10.85,38.3,10.85,38.3-20.86-14.58-28.29-9.8C45.62,315.51,43.77,337.28,78.43,349.69Z"/><path class="cls-3" d="M121.91,344.37c13.89-15,13.9-33,5.62-34.13-4-.57-6.2,13.21-6.2,13.21s-6.66-9.94-10.85-7.73-2.21,14.88-2.21,14.88-12.35-6.72-15.18-2.73,6.71,13.55,6.71,13.55-15.38-.47-16.29,4.7C82.48,351.89,100.85,367.1,121.91,344.37Z"/><path class="cls-4" d="M224.54,353.4c3.87-5.29,25.47-31.13,59-2.72a2,2,0,0,1,.33,2.47,1.89,1.89,0,0,1-.25.31c-7.61,7.39-43.25,39.11-59.3,1.87A2,2,0,0,1,224.54,353.4Z"/><path class="cls-4" d="M206.38,208.33c1.44-6.74,10.89-41.06,51.82-33a1.76,1.76,0,0,1,1.23,2.06,1.86,1.86,0,0,1-.1.39c-4,10.56-23.77,57.39-52.39,32.34A1.9,1.9,0,0,1,206.38,208.33Z"/><path class="cls-4" d="M207.41,213.5c-3.7-5.44-24.43-32.25-58.9-5.35a2,2,0,0,0-.4,2.45,1.83,1.83,0,0,0,.24.31c7.36,7.73,41.92,41,59.19,4.53A2,2,0,0,0,207.41,213.5Z"/><path class="cls-4" d="M169.21,406c-5.42-2.92-34.35-15.89-54.59,26.24a1.94,1.94,0,0,0,.61,2.41,1,1,0,0,0,.33.15c9.58,3,53.38,14.48,54.53-27.15A1.81,1.81,0,0,0,169.21,406Z"/><path class="cls-4" d="M120.13,350c-3.75-5.45-24.44-32.26-58.91-5.36a2,2,0,0,0-.4,2.45,2.62,2.62,0,0,0,.23.32c7.37,7.72,42,41.05,59.21,4.52A2,2,0,0,0,120.13,350Z"/><path class="cls-4" d="M204.33,410.87c1.77-6.64,9-41.68-29.61-59.42a1.45,1.45,0,0,0-2,1,1.37,1.37,0,0,0-.09.4c-1.3,11.43-5.29,63.4,30.36,59.24A1.57,1.57,0,0,0,204.33,410.87Z"/><path class="cls-4" d="M224.59,294.74c-.73-6.89-6.55-42.3-48-40a1.68,1.68,0,0,0-1.43,1.85,1.52,1.52,0,0,0,.06.42c2.86,11,17.62,60.32,48.64,39.47A1.87,1.87,0,0,0,224.59,294.74Z"/><path class="cls-4" d="M113.64,732.2c-5-3.77-32.11-21.32-57.22,17.1a2,2,0,0,0,.28,2.46A1.46,1.46,0,0,0,57,752c9.12,4.54,51.1,23,57.23-18A1.88,1.88,0,0,0,113.64,732.2Z"/><path class="cls-4" d="M119,728.48c1-6.84,8.11-41.92,49.46-37.54a1.71,1.71,0,0,1,1.37,1.9,3,3,0,0,1-.08.43c-3.27,10.88-19.85,59.37-50.07,37A1.88,1.88,0,0,1,119,728.48Z"/><path class="cls-4" d="M137.78,581.06c-2-6.53-14.34-39.61-54.38-26.84a1.79,1.79,0,0,0-1.07,2.15,1.72,1.72,0,0,0,.14.4c4.87,10.05,28.52,54.44,54.88,26.13A2,2,0,0,0,137.78,581.06Z"/><path class="cls-4" d="M142.22,581.14c2.29-6.41,16-38.71,55.47-23.62a1.86,1.86,0,0,1,1,2.24,2.54,2.54,0,0,1-.16.38c-5.29,9.74-30.85,52.63-56,22.86A2,2,0,0,1,142.22,581.14Z"/><path class="cls-4" d="M199.06,433.08c2.81-6.13,19.14-36.77,57.13-17.42A1.89,1.89,0,0,1,257,418a1.55,1.55,0,0,1-.19.36c-6.07,9.13-35,49-57.57,16.63A2,2,0,0,1,199.06,433.08Z"/><path class="cls-4" d="M115.72,853.35c-1.87-6.53-13.73-39.9-53.95-28a1.82,1.82,0,0,0-1.07,2.17,1.71,1.71,0,0,0,.13.38c4.68,10.15,27.69,55,54.47,27.31A2,2,0,0,0,115.72,853.35Z"/><path class="cls-4" d="M122.69,875c-.81-6.88-3-42.83,37.53-53a1.52,1.52,0,0,1,1.83,1.3,1.56,1.56,0,0,1,0,.48c-.31,11.53-3.66,63.55-38.26,52.7A1.69,1.69,0,0,1,122.69,875Z"/><path class="cls-4" d="M240.05,565.66c3.22-5.85,18.2-37.41-15-66.41a1.38,1.38,0,0,0-2.12.36,2,2,0,0,0-.18.36c-3.86,10.61-19.58,59.49,15.75,66.48A1.48,1.48,0,0,0,240.05,565.66Z"/><path class="cls-4" d="M161.92,512.55c.93-6.86,3.74-42.75-36.62-53.88a1.53,1.53,0,0,0-1.84,1.32,3,3,0,0,0,0,.42C123.54,471.94,126,524,160.77,514A1.69,1.69,0,0,0,161.92,512.55Z"/><path class="cls-4" d="M119.68,668.23c-.15-7-3-42.84-44.44-45.25a1.63,1.63,0,0,0-1.58,1.68,1.85,1.85,0,0,0,0,.41c1.87,11.33,12.48,62.06,45.11,44.79A1.79,1.79,0,0,0,119.68,668.23Z"/><path class="cls-4" d="M229.9,585.49c4.11-5,26.84-29.54,59.07.86a2,2,0,0,1,.21,2.48,1.48,1.48,0,0,1-.26.3c-7.93,6.92-45,36.45-59.31-1.72A2,2,0,0,1,229.9,585.49Z"/><path class="cls-4" d="M192.29,608.69c5.92-1,36.85-3.62,45.7,43.55a1.81,1.81,0,0,1-1.12,2.13,1.43,1.43,0,0,1-.41,0c-9.91-.34-54.69-4.12-45.42-44.36A1.64,1.64,0,0,1,192.29,608.69Z"/><path class="cls-4" d="M229,300.19c.53-6.91,5.31-42.52,46.83-41.87a1.67,1.67,0,0,1,1.48,1.8,2.33,2.33,0,0,1,0,.38c-2.54,11.15-15.85,61-47.46,41.37A1.83,1.83,0,0,1,229,300.19Z"/><path class="cls-4" d="M119.69,348.27c-2.74-6.18-15.08-39.19,20.29-64.49a1.41,1.41,0,0,1,2.1.61,2,2,0,0,1,.14.37c3,11,14.66,61.36-21.07,64.45A1.49,1.49,0,0,1,119.69,348.27Z"/><path class="cls-4" d="M254.11,522.24c-2.73-6.18-15.08-39.19,20.29-64.49a1.4,1.4,0,0,1,2.09.58,2.26,2.26,0,0,1,.15.39c3,11,14.67,61.38-21.07,64.46A1.48,1.48,0,0,1,254.11,522.24Z"/><path class="cls-4" d="M189,182.38c-5.93-.84-36.4-7.5-34.55-55.71a1.62,1.62,0,0,1,1.59-1.67,1.53,1.53,0,0,1,.36.07c9.51,3.27,51.94,20.32,34.09,56.44A1.47,1.47,0,0,1,189,182.38Z"/><path class="cls-4" d="M186.71,439.61a3.75,3.75,0,0,0,1.67,2.69c-5.29,12.77-10.78,25.48-16.23,38.11-20.53,47.76-38.72,95.64-48.52,146-17.5,89.69-13.6,181.68-4,272.93l8.89.63c-5.18-49-8.67-98.09-8.11-147.08q.19-17.62,1.15-35.23c1.68-.25,3-1.26,2.93-3.12-2.81-47.8,36.18-75.36,75.71-103.73,32.07-23,64.53-52,60.88-90.08-.44-4.6-9.32-5.27-8.87-.63,4.3,45.19-42.54,73.49-78.76,100-20.12,14.71-37.4,30.76-47.76,49.64a577.66,577.66,0,0,1,14.76-77.62c13.52-51.17,36.78-99.57,57-148.9,34-83,58.2-180.57-3-263.09-3-4-10.86-1-7.85,3.1,34.37,46.37,41.44,100.47,34.07,152.1-4.69,32.66-15.17,64.1-27.5,95.05C189,419,179.82,409.68,168.48,401.15c-19.06-14.32-45-28.14-43.65-51.58.28-4.63-8.6-5.26-8.87-.62C113.48,390.73,182.63,400.87,186.71,439.61Z"/></g></g><g id="Слой_2-4" data-name="Слой 2"><g id="background-3" data-name="background"><path class="cls-2" d="M689.56,151a46,46,0,0,0,6.5-19.7,5.55,5.55,0,0,0,4.7.45c4.32-2.15.06-13.29.06-13.29s12.75,7.36,14.42,4a8.64,8.64,0,0,0,.78-4.1c8.8,4.87,16,12.42,15.42,16.46-1,7-12.12,3.25-12.12,3.25s17.83,17.1,10.56,22.81-21.38-9.44-21.38-9.44,5.75,23.67-4.37,24.52C696.85,176.55,691.81,160.24,689.56,151Z"/><path class="cls-3" d="M715.24,122.47c-1.67,3.32-14.42-4-14.42-4s4.26,11.14-.06,13.28a5.55,5.55,0,0,1-4.7-.44,47,47,0,0,0-4.47-23.81q9,1.38,18.62,1.92c4.28,2.58,5.67,6.11,5.78,9A8.55,8.55,0,0,1,715.24,122.47Z"/><path class="cls-4" d="M696.06,131.55a46,46,0,0,1-6.5,19.7,72.17,72.17,0,0,1-17.33,19.27,1.81,1.81,0,0,1-2.62-.37,2.61,2.61,0,0,1-.17-.28C665,160.16,648,119,675,104.44a176.5,176.5,0,0,1-68-33.92c6.21,12.71,9.81,34-12.94,59a1.82,1.82,0,0,1-2.67,0,2.11,2.11,0,0,1-.19-.23c-6.49-9.7-33.18-53.78,3-69.91a255.7,255.7,0,0,1-32.5-37.6c.66,11.74-2.14,41.92-45.19,51.37a1.78,1.78,0,0,1-2.18-1.36,1.89,1.89,0,0,1-.06-.47c.34-11.7,4.05-63.74,43.51-55.16Q552.37,8.27,547.37,0H559a280.28,280.28,0,0,0,19.37,27.22A228.4,228.4,0,0,0,606.09,56c8.95-41.31,58.33-21,69.08-16a1.81,1.81,0,0,1,.94,2.3,1.64,1.64,0,0,1-.28.48c-24.3,30.25-49.07,25.44-61.65,19.9a178.13,178.13,0,0,0,66.74,32.8c-12-38.77,39.64-46.75,51.27-48.05a1.79,1.79,0,0,1,2,1.59,1.77,1.77,0,0,1,0,.46c-4.94,36.82-26.84,46.37-40.67,48.67a188.44,188.44,0,0,0,29.59,2.73,3.15,3.15,0,0,1,1.61.39c9.49-7.09,36.11-21.25,67.73,9.44a1.82,1.82,0,0,1,.12,2.48,1.44,1.44,0,0,1-.42.36c-9.82,6.12-54.35,31.27-69.49-4.61a5.73,5.73,0,0,1-3.41,1.18q-4.56-.07-9-.33-9.59-.54-18.62-1.93A47,47,0,0,1,696.06,131.55Z"/></g></g><g id="Слой_2-5" data-name="Слой 2"><g id="background-4" data-name="background"><path class="cls-5" d="M1315.29,3C1381,35.31,1424.06,20.3,1435,15.37a235.34,235.34,0,0,0,30.52,33.55c-39.78-11.44-93.2,20.6-105.69,28.61-1.41.91-1.07,2.14.68,2.43,68.06,12.91,106.75-11.6,117.9-20.23q7.69,6,15.81,11.24a215,215,0,0,0,25.27,14c-41.76-.47-87.85,50.09-98.29,62.19-1.13,1.34-.53,2.39,1.22,2.14,70.25-10.15,101.67-48.07,109.39-59a200.85,200.85,0,0,0,37,10.69c-30.88,11.68-55.48,60.76-61,72.48-.62,1.31,0,1.94,1.31,1.27,48.74-25.22,66-60.1,70.68-72a187,187,0,0,0,20.19,1.45V98.18a187.81,187.81,0,0,1-23.18-1.89c2.51-35.4-20.53-72-40-96.29h-19.23c15.73,56.52,40.07,84.31,51.9,95.07a198.52,198.52,0,0,1-53.37-18.16c3.45-26.12-8.15-54.38-21.38-76.91h-23.43c9.93,37,24.35,59.36,33.91,71.06a212,212,0,0,1-19.47-12.82,218,218,0,0,1-34.53-32A72.72,72.72,0,0,0,1451.92,0h-20.16c.75,1.6,1.51,3.13,2.26,4.58-1.1-1.5-2.18-3-3.26-4.58h-6.53c.91,1.37,1.83,2.72,2.74,4.07A60,60,0,0,0,1420.33,0H1316.59l-1.49.47C1313.56,1,1313.65,2.22,1315.29,3Z"/></g></g><g id="Слой_2-6" data-name="Слой 2"><g id="background-5" data-name="background"><path class="cls-5" d="M1592.22,817.08c2.67.41,5.35.92,7.78,1.48V808.21c-5.57-14.19-24.84-51.05-76.45-77.92-1.4-.73-2.1,0-1.43,1.39,6,13,33.17,67.44,67.17,79.87a160,160,0,0,0-41.6-.15c-4-10.35-18.79-40.36-60.54-62.12-1.1-.58-1.64,0-1.13,1.09,4.72,10.1,25.78,52.42,52.24,62.49a171.1,171.1,0,0,0-31.68,9.18c-6.6-9.41-33.52-42.12-93.7-50.86-1.5-.22-2,.68-1,1.82,8.93,10.45,48.41,54,84.18,53.62a188.84,188.84,0,0,0-21.65,12.07,166.44,166.44,0,0,0-13.54,9.69c-9.54-7.4-42.69-28.56-100.94-17.44-1.5.28-1.79,1.32-.58,2.09,10.65,6.87,56.4,34.44,90.48,24.62a203.41,203.41,0,0,0-26.15,28.93c-9.4-4.31-46.27-17.2-102.54,10.65-1.4.7-1.49,1.78-.17,2.21l1.23-.26h88.92a15.63,15.63,0,0,0,5.69-2.85l-2.35,2.85h5.6a15.74,15.74,0,0,0,2.8-3.31,14.67,14.67,0,0,1-1.95,3.31h17.3a59.5,59.5,0,0,0-.62-21.91,186.85,186.85,0,0,1,29.54-27.68,180.59,180.59,0,0,1,16.68-11c-8.22,10.09-20.54,29.35-29,60.61h20.07c11.38-18.81,21.23-43.18,18.32-65.73a169.32,169.32,0,0,1,45.7-15.6c-10.12,9.27-31,33.25-44.44,83.15h16.42c16.71-22.08,36.44-53.66,34.29-84.2a157.07,157.07,0,0,1,40.81-.61c-9.77,9.34-29.24,33.33-39.21,82.73-.07.3-.09.61-.06.26h1.46C1557,891.14,1593,853.59,1592.22,817.08Z"/></g></g><g id="Слой_2-7" data-name="Слой 2"><g id="background-6" data-name="background"><path class="cls-2" d="M574.29,709.72s15.18-11.11,15.51-14.64-9.65,1.56-9.65,1.56,12.85-17.53,7.43-21.84-14.23,9.38-14.23,9.38.51-13.65-5.88-14.4-6,15.53-6,15.53-3.65-6.85-7.6-4-1.62,21,6.88,25.65S574.29,709.72,574.29,709.72Z"/><path class="cls-3" d="M554.59,708.38c4,5.22,13.39,9.19,20,4.34s7.65-6.85,4.87-9-9.09,1.74-9.09,1.74.2-7.42-3-8.45-6.6,6.16-6.6,6.16-2.66-9.37-5.09-8.65S548.08,699.84,554.59,708.38Z"/><path class="cls-2" d="M457.81,819.33c8.87,2,24.51,7.16,38.5-10,7.5-9.19,5.37-33.27-3.54-44s-16.66-12.32-22.27-5.27,6.28,25.67,6.28,25.67-17.93-18.09-28.34-12,10.75,25.49,10.75,25.49-18.09-8.9-24.08-5.31C428.89,797.7,428.29,812.53,457.81,819.33Z"/><path class="cls-3" d="M493.93,813.64c11-10.85,10.17-23,3.2-23.45-3.41-.19-4.61,9.26-4.61,9.26s-6-6.42-9.4-4.72-1.2,10.21-1.2,10.21-10.62-4-12.82-1.14,6.2,8.89,6.2,8.89-12.87.42-13.41,4C461.29,820.64,477.31,830.1,493.93,813.64Z"/><path class="cls-4" d="M580.15,814.86c3.05-3.78,19.94-22.37,49.23-4.67a1.15,1.15,0,0,1,.44,1.63,1.16,1.16,0,0,1-.25.29c-6,5.39-34.46,28.63-49.5,4.11A1.13,1.13,0,0,1,580.15,814.86Z"/><path class="cls-4" d="M558.6,717.21c.92-4.64,7.32-28.41,41.89-24.87a1.21,1.21,0,0,1,1.08,1.36,1.14,1.14,0,0,1-.06.25c-2.84,7.36-17.29,40.13-42.35,24.47A1.16,1.16,0,0,1,558.6,717.21Z"/><path class="cls-4" d="M559.7,720.64c-3.34-3.52-21.84-20.73-49.48-.82a1.17,1.17,0,0,0-.24,1.7,1.26,1.26,0,0,0,.24.22c6.5,4.89,36.85,25.85,49.69.24A1.15,1.15,0,0,0,559.7,720.64Z"/><path class="cls-4" d="M536.15,853.23c-4.65-1.72-29.41-9.16-44.49,20.43a1.18,1.18,0,0,0,.6,1.6,1.61,1.61,0,0,0,.29.09c8.14,1.58,45.25,7.29,44.41-21A1.19,1.19,0,0,0,536.15,853.23Z"/><path class="cls-4" d="M492.69,817.53c-3.33-3.52-21.84-20.73-49.47-.81a1.14,1.14,0,0,0-.27,1.66,1,1,0,0,0,.27.26c6.49,4.89,36.83,25.85,49.68.23A1.16,1.16,0,0,0,492.69,817.53Z"/><path class="cls-4" d="M565.73,854.85c1.19-4.59,5.7-28.73-27.34-38.94a1.3,1.3,0,0,0-1.6.78,1.27,1.27,0,0,0-.06.28c-.59,7.82-1.66,43.3,28,38.77A1.24,1.24,0,0,0,565.73,854.85Z"/><path class="cls-4" d="M577.61,775c-.92-4.65-7.33-28.42-41.89-24.86a1.2,1.2,0,0,0-1.09,1.33.9.9,0,0,0,.07.27c2.87,7.36,17.36,40.12,42.39,24.47A1.17,1.17,0,0,0,577.61,775Z"/><path class="cls-4" d="M562.3,870.19c2-4.29,14.39-25.92,47-14.54a1.2,1.2,0,0,1,.75,1.55,2,2,0,0,1-.14.25c-4.68,6.48-27.15,34.95-47.42,14A1.18,1.18,0,0,1,562.3,870.19Z"/><path class="cls-4" d="M501.28,900a71.31,71.31,0,0,1-1-7.69,1.22,1.22,0,0,1,1.16-1.28,1.15,1.15,0,0,1,.32,0c10.12,1.66,17.17,5,22.09,8.92Z"/><path class="cls-4" d="M581.51,778.51c.15-4.72,2.59-29.13,37.32-30.68a1.24,1.24,0,0,1,1.32,1.15.86.86,0,0,1,0,.28c-1.63,7.69-10.59,42.18-37.87,30.38A1.23,1.23,0,0,1,581.51,778.51Z"/><path class="cls-4" d="M492.23,816.39c-2.54-4.07-14.31-25.92,14.16-44.76a1.32,1.32,0,0,1,1.77.29l.14.25c3,7.33,14.9,41-14.8,44.79A1.32,1.32,0,0,1,492.23,816.39Z"/><path class="cls-4" d="M543,700.42c-5-.29-30.77-3.35-31.32-36.17a1.25,1.25,0,0,1,1.24-1.25,1.66,1.66,0,0,1,.32,0c8.14,1.78,44.31,11.31,31,36.69A1.3,1.3,0,0,1,543,700.42Z"/><path class="cls-4" d="M551.35,900h-7.81c3.46-7.68,6.92-15.37,10.25-23a2.52,2.52,0,0,1-1.51-1.75c-5.08-26.12-63.37-29.69-63.11-58.19,0-3.15,7.47-3.16,7.44,0-.14,16,22.19,24.12,38.75,32.93,9.86,5.24,17.91,11.16,22,18.66,9-21.61,16.37-43.49,18.84-65.86,3.91-35.42-4.35-71.83-35.11-101.67-2.7-2.61,3.75-5.07,6.42-2.48,54.74,53.13,38.78,120.55,14,178.56C558.15,884.78,554.72,892.39,551.35,900Z"/></g></g></g></g></svg>