<svg xmlns="http://www.w3.org/2000/svg" viewBox="0 0 277.93 711.9"><defs><style>.cls-1{fill:#ff485e;}.cls-2{fill:#c6335c;}.cls-3{fill:#15a38d;}</style></defs><title>Ресурс 1</title><g id="Слой_2" data-name="Слой 2"><g id="background"><path class="cls-1" d="M219,408.13s-6.93-21.89,8.32-33.56,25.3-3.14,25.3-3.14-2.6-14.18,4-13.27,5.66,12.13,5.66,12.13,6.1-13.45,10-9.45-5.1,17-5.1,17,10.61-2.3,10.74,3.8-13.47,2.54-13.47,2.54,4,8.67-4.92,19.11S231.09,422.4,219,408.13Z"/><path class="cls-2" d="M200.63,425.48c2.33,9.31,22,.79,33.38-2.47s13.78-5.51,11.35-10-12.87-2.32-12.87-2.32,4.35-10.19.74-13.26-12,5.11-12,5.11-4.52-12-2-14.58S196.8,410.27,200.63,425.48Z"/><path class="cls-1" d="M188.92,67.67s20.21-13.8,20.94-18.54-12.46,1.41-12.46,1.41,17.78-22.63,11.25-28.86-18.88,11.55-18.88,11.55,1.79-18.36-6.3-19.84-8.95,20.48-8.95,20.48-4.12-9.62-9.31-6.16-3.77,28.12,6.66,35.09S188.92,67.67,188.92,67.67Z"/><path class="cls-2" d="M164,64.34c4.64,7.34,16.28,13.41,25.15,7.4S199.4,63.1,196.05,60s-11.72,1.63-11.72,1.63.87-10-3.11-11.6-8.88,7.78-8.88,7.78-2.61-12.83-5.8-12S156.38,52.33,164,64.34Z"/><path class="cls-1" d="M31.74,206.4c11.13,3.44,30.61,11.54,49.8-10.44,10.31-11.81,9.56-44.42-.9-59.58s-20.19-17.89-27.9-8.8c-7.54,8.88,5.89,35.06,5.89,35.06s-21.34-25.7-35.08-18.34,11.59,35.18,11.59,35.18-22.28-13.39-30.21-9C-3.29,175-5.26,195,31.74,206.4Z"/><path class="cls-2" d="M78.17,201.51c14.83-13.78,14.84-30.29,6-31.35-4.32-.52-6.62,12.13-6.62,12.13s-7.12-9.13-11.59-7.1-2.36,13.67-2.36,13.67-13.18-6.17-16.21-2.51,7.17,12.45,7.17,12.45-16.42-.43-17.39,4.32C36.07,208.42,55.68,222.39,78.17,201.51Z"/><path class="cls-3" d="M187.74,209.81c4.13-4.86,27.2-28.6,63-2.5a1.62,1.62,0,0,1,.08,2.55c-8.12,6.79-46.18,35.93-63.31,1.72A1.61,1.61,0,0,1,187.74,209.81Z"/><path class="cls-3" d="M168.35,76.55c1.54-6.19,11.63-37.72,55.33-30.28a1.63,1.63,0,0,1,1.21,2.25c-4.26,9.7-25.38,52.72-55.94,29.71A1.61,1.61,0,0,1,168.35,76.55Z"/><path class="cls-3" d="M169.45,81.3c-3.95-5-26.08-29.63-62.88-4.92a1.62,1.62,0,0,0-.18,2.54c7.86,7.1,44.76,37.68,63.2,4.16A1.62,1.62,0,0,0,169.45,81.3Z"/><path class="cls-3" d="M128.67,258.12c-5.79-2.68-36.68-14.59-58.29,24.11a1.63,1.63,0,0,0,1,2.35c10.23,2.76,57,13.3,58.23-24.94A1.63,1.63,0,0,0,128.67,258.12Z"/><path class="cls-3" d="M76.26,206.67c-4-5-26.09-29.63-62.89-4.92a1.62,1.62,0,0,0-.18,2.54C21.05,211.39,58,242,76.4,208.45A1.63,1.63,0,0,0,76.26,206.67Z"/><path class="cls-3" d="M166.16,262.6c1.89-6.1,9.61-38.29-31.61-54.59a1.62,1.62,0,0,0-2.19,1.29c-1.39,10.5-5.65,58.24,32.42,54.42A1.61,1.61,0,0,0,166.16,262.6Z"/><path class="cls-3" d="M187.8,155.92c-.78-6.33-7-38.85-51.27-36.74a1.62,1.62,0,0,0-1.47,2.08c3.06,10.14,18.82,55.41,51.94,36.26A1.63,1.63,0,0,0,187.8,155.92Z"/><path class="cls-3" d="M69.33,557.76C64,554.3,35.05,538.18,8.24,573.47a1.61,1.61,0,0,0,.65,2.46C18.63,580.1,63.45,597.09,70,559.4A1.61,1.61,0,0,0,69.33,557.76Z"/><path class="cls-3" d="M75.08,554.35c1.06-6.29,8.66-38.51,52.81-34.49a1.61,1.61,0,0,1,1.37,2.14c-3.49,10-21.19,54.54-53.45,34A1.61,1.61,0,0,1,75.08,554.35Z"/><path class="cls-3" d="M95.11,418.93c-2.15-6-15.31-36.39-58.06-24.66a1.62,1.62,0,0,0-1,2.35c5.2,9.23,30.46,50,58.6,24A1.63,1.63,0,0,0,95.11,418.93Z"/><path class="cls-3" d="M99.85,419c2.45-5.89,17.13-35.56,59.23-21.69a1.62,1.62,0,0,1,.85,2.4c-5.65,8.95-32.94,48.35-59.74,21A1.62,1.62,0,0,1,99.85,419Z"/><path class="cls-3" d="M160.54,283c3-5.63,20.43-33.78,61-16a1.62,1.62,0,0,1,.63,2.47c-6.48,8.38-37.39,45-61.47,15.27A1.59,1.59,0,0,1,160.54,283Z"/><path class="cls-3" d="M71.56,669.05c-2-6-14.66-36.65-57.61-25.69a1.62,1.62,0,0,0-1,2.34c5,9.32,29.56,50.49,58.16,25.08A1.64,1.64,0,0,0,71.56,669.05Z"/><path class="cls-3" d="M79,688.89c-.87-6.32-3.25-39.34,40.07-48.71a1.62,1.62,0,0,1,2,1.63c-.34,10.59-3.91,58.38-40.85,48.41A1.62,1.62,0,0,1,79,688.89Z"/><path class="cls-3" d="M204.3,404.78c3.44-5.37,19.43-34.36-16-61a1.62,1.62,0,0,0-2.46.66c-4.12,9.75-20.9,54.65,16.82,61.07A1.64,1.64,0,0,0,204.3,404.78Z"/><path class="cls-3" d="M120.88,356c1-6.3,4-39.27-39.1-49.5a1.63,1.63,0,0,0-2,1.6c.13,10.59,2.75,58.45,39.88,49.21A1.62,1.62,0,0,0,120.88,356Z"/><path class="cls-3" d="M75.78,499c-.16-6.38-3.17-39.35-47.44-41.56a1.62,1.62,0,0,0-1.67,1.92c2,10.4,13.33,57,48.16,41.14A1.6,1.6,0,0,0,75.78,499Z"/><path class="cls-3" d="M193.47,423c4.38-4.63,28.65-27.14,63.07.79a1.62,1.62,0,0,1-.06,2.55c-8.47,6.36-48,33.48-63.32-1.58A1.63,1.63,0,0,1,193.47,423Z"/><path class="cls-3" d="M153.31,444.31c6.32-.88,39.34-3.33,48.79,40a1.62,1.62,0,0,1-1.63,2c-10.58-.32-58.39-3.79-48.49-40.75A1.62,1.62,0,0,1,153.31,444.31Z"/><path class="cls-3" d="M192.48,160.93c.57-6.35,5.67-39.06,50-38.46a1.62,1.62,0,0,1,1.54,2c-2.71,10.24-16.92,56-50.67,38A1.62,1.62,0,0,1,192.48,160.93Z"/><path class="cls-3" d="M75.79,205.09c-2.92-5.67-16.1-36,21.67-59.24a1.63,1.63,0,0,1,2.39.9c3.18,10.1,15.65,56.37-22.5,59.21A1.63,1.63,0,0,1,75.79,205.09Z"/><path class="cls-3" d="M219.31,364.9c-2.91-5.68-16.1-36,21.67-59.24a1.62,1.62,0,0,1,2.39.89c3.19,10.1,15.66,56.38-22.5,59.21A1.62,1.62,0,0,1,219.31,364.9Z"/><path class="cls-3" d="M149.81,52.71c-6.33-.77-38.87-6.89-36.89-51.17A1.62,1.62,0,0,1,115,.07c10.15,3,55.46,18.66,36.4,51.84A1.61,1.61,0,0,1,149.81,52.71Z"/><path class="cls-3" d="M147.35,289a3.45,3.45,0,0,0,1.78,2.47c-5.64,11.73-11.51,23.4-17.32,35C109.89,370.35,90.46,414.33,80,460.61,61.32,543,65.48,627.5,75.77,711.32l9.49.58c-5.53-45-9.25-90.1-8.65-135.1q.21-16.2,1.22-32.37c1.8-.23,3.25-1.15,3.13-2.86-3-43.91,38.63-69.23,80.84-95.29,34.24-21.13,68.9-47.74,65-82.74-.47-4.23-9.95-4.84-9.47-.58,4.59,41.51-45.42,67.51-84.09,91.81-21.49,13.51-39.93,28.26-51,45.6A465.5,465.5,0,0,1,98,429.07c14.44-47,39.27-91.46,60.86-136.78,36.32-76.24,62.14-165.86-3.18-241.66-3.2-3.71-11.6-.89-8.38,2.84,36.7,42.6,44.24,92.29,36.37,139.72-5,30-16.19,58.88-29.36,87.31-4.53-10.42-14.31-19-26.42-26.83-20.35-13.16-48.09-25.85-46.61-47.38.3-4.26-9.18-4.83-9.47-.57C69.16,244.1,143,253.41,147.35,289Z"/></g></g></svg>