<svg xmlns="http://www.w3.org/2000/svg" viewBox="0 0 227.63 114.88"><defs><style>.cls-1{fill:#1baa7c;}</style></defs><title>Ресурс 3 (2)</title><g id="Слой_2" data-name="Слой 2"><g id="background"><path class="cls-1" d="M221.14,58.93c2.17.28,4.34.62,6.49,1v-7c-4.7-9.59-20.35-34.51-62.28-52.68-1.13-.49-1.7,0-1.16.94,4.91,8.76,26.95,45.6,54.57,54a155.9,155.9,0,0,0-33.8-.1c-3.26-7-15.26-27.29-49.18-42-.89-.39-1.33,0-.91.74,3.83,6.83,20.94,35.44,42.43,42.25a160.7,160.7,0,0,0-25.73,6.2c-5.36-6.36-27.23-28.47-76.12-34.38-1.22-.15-1.64.46-.84,1.23,7.26,7.06,39.33,36.53,68.39,36.25a163.88,163.88,0,0,0-17.59,8.16q-5.62,3-11,6.55c-7.75-5-34.68-19.31-82-11.79-1.22.19-1.45.89-.47,1.41C40.59,74.36,77.76,93,105.44,86.36A150.2,150.2,0,0,0,84.2,105.92C76.56,103,46.61,94.29.9,113.12c-1.14.47-1.21,1.2-.14,1.49l1,.27H74a46.71,46.71,0,0,0,4.62-2.37l-1.91,2.37h4.55c.75-.9,1.5-1.79,2.27-2.68-.52.85-1,1.75-1.58,2.68H96a35.43,35.43,0,0,0-.5-15.26,144.68,144.68,0,0,1,24-18.71,151.2,151.2,0,0,1,13.55-7.45c-6.68,6.82-16.69,19.84-23.6,41.42h16.3C135,101.72,143,85.24,140.63,70a157.11,157.11,0,0,1,37.13-10.55c-8.22,6.27-25.15,22.48-36.1,55.42H155c13.57-14.13,29.6-35.48,27.85-56.13A153.15,153.15,0,0,1,216,58.33c-7.93,6.31-23.75,22.53-31.85,55.93a1.74,1.74,0,0,0-.05.62h1.19C192.51,109,221.73,83.61,221.14,58.93Z"/></g></g></svg>