<svg xmlns="http://www.w3.org/2000/svg" viewBox="0 0 319.61 163.78"><defs><style>.cls-1{fill:#1baa7c;}</style></defs><title>Ресурс 3</title><g id="Слой_2" data-name="Слой 2"><g id="background"><path class="cls-1" d="M1.44,2.83C74.86,33.06,123,19,135.24,14.39A240.52,240.52,0,0,0,169.35,45.8C124.89,35.09,65.19,65.08,51.23,72.58c-1.57.85-1.19,2,.76,2.28C128.05,86.94,171.29,64,183.75,55.92q8.61,5.61,17.67,10.52a258.78,258.78,0,0,0,28.24,13.1c-46.67-.44-98.18,46.89-109.84,58.22-1.27,1.25-.6,2.23,1.36,2,78.51-9.5,113.63-45,122.25-55.23a258.22,258.22,0,0,0,41.32,10c-34.51,10.94-62,56.89-68.14,67.86-.69,1.22,0,1.81,1.46,1.19,54.48-23.61,73.75-56.27,79-67.45q11.24,1.19,22.56,1.35V91.91a249,249,0,0,1-25.9-1.77C296.53,57,270.78,22.7,249,0H227.51c17.58,52.91,44.78,78.93,58,89a252.16,252.16,0,0,1-59.64-17c3.85-24.45-9.11-50.91-23.9-72H175.79C186.88,34.66,203,55.57,213.68,66.52a245.88,245.88,0,0,1-21.76-12,232.61,232.61,0,0,1-38.59-30A57.22,57.22,0,0,0,154.14,0H131.61q1.26,2.25,2.52,4.29C132.9,2.88,131.7,1.44,130.49,0h-7.3q1.53,1.92,3.07,3.81A73.18,73.18,0,0,0,118.83,0H2.9L1.23.44C-.49.9-.39,2.08,1.44,2.83Z"/></g></g></svg>