<svg xmlns="http://www.w3.org/2000/svg" viewBox="0 0 194.95 246.79"><defs><style>.cls-1{fill:#ff485e;}.cls-2{fill:#c6335c;}.cls-3{fill:#15a38d;}</style></defs><title>Ресурс 4</title><g id="Слой_2" data-name="Слой 2"><g id="background"><path class="cls-1" d="M140.24,48.63s14.92-11.57,15.25-15.25S146,35,146,35s12.63-18.25,7.31-22.74-14,9.77-14,9.77.51-14.22-5.78-15-5.94,16.18-5.94,16.18S124,16.07,120.12,19s-1.59,21.83,6.77,26.71S140.24,48.63,140.24,48.63Z"/><path class="cls-2" d="M120.87,47.23c3.91,5.44,13.16,9.57,19.71,4.52s7.52-7.13,4.79-9.39-8.94,1.81-8.94,1.81.2-7.73-2.94-8.8S127,41.78,127,41.78s-2.61-9.75-5-9S114.47,38.34,120.87,47.23Z"/><path class="cls-1" d="M25.71,162.78c8.72,2.13,24.1,7.46,37.85-10.36,7.38-9.57,5.28-34.65-3.48-45.83S43.7,93.76,38.19,101.11s6.17,26.73,6.17,26.73S26.73,109,16.49,115.35,27.06,141.9,27.06,141.9s-17.78-9.27-23.67-5.53C-2.73,140.25-3.32,155.7,25.71,162.78Z"/><path class="cls-2" d="M61.22,156.85c10.78-11.3,10-24,3.15-24.42-3.35-.2-4.53,9.65-4.53,9.65s-5.91-6.69-9.25-4.92-1.18,10.63-1.18,10.63-10.44-4.13-12.6-1.18,6.1,9.25,6.1,9.25-12.66.44-13.19,4.14C29.13,164.14,44.88,174,61.22,156.85Z"/><path class="cls-3" d="M146,158.12c3-3.93,19.61-23.29,48.41-4.86a1.24,1.24,0,0,1,.18,2c-5.94,5.61-33.88,29.82-48.67,4.28A1.24,1.24,0,0,1,146,158.12Z"/><path class="cls-3" d="M124.81,56.43c.91-4.84,7.2-29.59,41.19-25.9a1.25,1.25,0,0,1,1,1.67C164.21,39.87,150,74,125.36,57.69A1.24,1.24,0,0,1,124.81,56.43Z"/><path class="cls-3" d="M125.89,60c-3.28-3.67-21.47-21.59-48.65-.85a1.26,1.26,0,0,0,0,2c6.39,5.09,36.23,26.92,48.86.24A1.25,1.25,0,0,0,125.89,60Z"/><path class="cls-3" d="M102.74,198.08c-4.58-1.79-28.92-9.53-43.75,21.28a1.25,1.25,0,0,0,.88,1.76c8,1.65,44.49,7.59,43.66-21.91A1.24,1.24,0,0,0,102.74,198.08Z"/><path class="cls-3" d="M60,160.91c-3.27-3.67-21.47-21.59-48.64-.85a1.24,1.24,0,0,0,0,2c6.38,5.09,36.22,26.92,48.85.24A1.25,1.25,0,0,0,60,160.91Z"/><path class="cls-3" d="M131.82,199.77c1.17-4.78,5.61-29.92-26.88-40.55a1.25,1.25,0,0,0-1.63,1.1c-.58,8.15-1.64,45.1,27.5,40.38A1.24,1.24,0,0,0,131.82,199.77Z"/><path class="cls-3" d="M143.5,116.63c-.9-4.84-7.2-29.59-41.19-25.89a1.24,1.24,0,0,0-1,1.67c2.82,7.66,17.07,41.78,41.68,25.48A1.23,1.23,0,0,0,143.5,116.63Z"/><path class="cls-3" d="M128.45,215.75c2-4.47,14.15-27,46.23-15.14a1.25,1.25,0,0,1,.6,1.87c-4.6,6.75-26.69,36.4-46.62,14.63A1.26,1.26,0,0,1,128.45,215.75Z"/><path class="cls-3" d="M68.45,246.79a78.29,78.29,0,0,1-1-8,1.24,1.24,0,0,1,1.45-1.32c9.95,1.73,16.89,5.17,21.72,9.29Z"/><path class="cls-3" d="M147.34,120.27c.14-4.92,2.54-30.34,36.69-31.95a1.25,1.25,0,0,1,1.28,1.49c-1.6,8-10.41,43.92-37.24,31.63A1.27,1.27,0,0,1,147.34,120.27Z"/><path class="cls-3" d="M59.55,159.72c-2.5-4.24-14.07-27,13.92-46.62a1.25,1.25,0,0,1,1.88.57C78.28,121.3,90,156.35,60.8,160.31A1.27,1.27,0,0,1,59.55,159.72Z"/><path class="cls-3" d="M109.43,38.94c-4.91-.3-30.25-3.49-30.79-37.67A1.26,1.26,0,0,1,80.17,0c8,1.86,43.57,11.78,30.45,38.21A1.26,1.26,0,0,1,109.43,38.94Z"/><path class="cls-3" d="M117.68,246.79H110c3.4-8,6.81-16,10.08-24a2.59,2.59,0,0,1-1.48-1.82c-5-27.21-62.31-30.92-62.06-60.61,0-3.28,7.35-3.29,7.32,0-.14,16.65,21.82,25.12,38.1,34.3,9.69,5.46,17.61,11.62,21.59,19.43,8.82-22.5,16.1-45.29,18.53-68.59,3.84-36.89-4.28-74.8-34.53-105.88-2.65-2.72,3.69-5.28,6.32-2.58C167.69,92.37,152,162.58,127.59,223,124.37,230.94,121,238.87,117.68,246.79Z"/></g></g></svg>