<svg xmlns="http://www.w3.org/2000/svg" viewBox="0 0 249.22 149.32"><defs><style>.cls-1{fill:#ff485e;}.cls-2{fill:#c6335c;}.cls-3{fill:#15a38d;}</style></defs><title>Ресурс 1</title><g id="Слой_2" data-name="Слой 2"><g id="background"><path class="cls-1" d="M156.73,128.15a37.66,37.66,0,0,0,5.81-16.69,5.19,5.19,0,0,0,4.2.38c3.87-1.82.06-11.26.06-11.26s11.4,6.24,12.89,3.43a6.91,6.91,0,0,0,.7-3.47c7.87,4.13,14.3,10.52,13.79,13.95-.86,5.89-10.84,2.75-10.84,2.75s15.94,14.49,9.44,19.33-19.12-8-19.12-8,5.15,20.05-3.9,20.77C163.25,149.82,158.74,136,156.73,128.15Z"/><path class="cls-2" d="M179.69,104c-1.49,2.81-12.89-3.43-12.89-3.43s3.81,9.44-.06,11.26a5.19,5.19,0,0,1-4.2-.38,38,38,0,0,0-4-20.17q8.09,1.17,16.65,1.63c3.83,2.18,5.07,5.17,5.17,7.62A6.91,6.91,0,0,1,179.69,104Z"/><path class="cls-3" d="M162.54,111.46a37.66,37.66,0,0,1-5.81,16.69,62.49,62.49,0,0,1-15.5,16.33,1.67,1.67,0,0,1-2.49-.55c-4-8.23-19.16-43.12,5-55.44A161.35,161.35,0,0,1,82.93,59.75c5.55,10.77,8.77,28.78-11.57,50a1.69,1.69,0,0,1-2.56-.18C63,101.35,39.13,64,71.47,50.34A221.06,221.06,0,0,1,42.41,18.48C43,28.43,40.5,54,2,62a1.6,1.6,0,0,1-2-1.55c.3-9.91,3.62-54,38.91-46.73Q34.05,7,29.58,0H40A235.88,235.88,0,0,0,57.32,23.06,197.39,197.39,0,0,0,82.09,47.43c8-35,52.16-17.8,61.77-13.59a1.5,1.5,0,0,1,.59,2.36c-21.73,25.63-43.88,21.55-55.13,16.86A163,163,0,0,0,149,80.85C138.3,48,184.45,41.24,194.85,40.14a1.58,1.58,0,0,1,1.79,1.73c-4.42,31.2-24,39.29-36.37,41.24a177.06,177.06,0,0,0,26.46,2.31,3,3,0,0,1,1.44.33c8.48-6,32.29-18,60.56,8a1.49,1.49,0,0,1-.27,2.41c-8.78,5.18-48.6,26.49-62.13-3.91a5.31,5.31,0,0,1-3.05,1q-4.08-.06-8.06-.28-8.57-.45-16.65-1.63A38,38,0,0,1,162.54,111.46Z"/></g></g></svg>